<svg width="150" height="152" viewBox="0 0 150 152" fill="none" xmlns="http://www.w3.org/2000/svg">
<rect width="149" height="152" fill="#D9D9D9"/>
<path fill-rule="evenodd" clip-rule="evenodd" d="M129.15 96.8047C129.15 98.6253 128.529 100.074 127.289 101.338C117.946 110.849 108.568 120.361 99.2253 129.91C97.9845 131.173 96.5248 131.916 94.7001 131.842C92.5105 131.767 90.3209 131.842 88.0948 131.842C87.7299 131.805 87.5474 131.433 87.5109 131.21C87.4744 130.987 87.5474 130.653 87.8029 130.541H88.5692C90.5034 130.541 92.4375 130.504 94.3717 130.541C95.9774 130.578 97.2546 130.021 98.3494 128.869C101.488 125.6 104.663 122.404 107.838 119.172C113.932 112.967 120.026 106.725 126.157 100.557C127.289 99.4056 127.8 98.1052 127.8 96.5075C127.8 83.1689 127.8 69.7932 127.8 56.4546C127.8 54.8198 127.252 53.5194 126.157 52.4048C116.888 43.0046 107.619 33.5673 98.3859 24.13C97.2911 23.0153 96.0139 22.4208 94.4082 22.4208C91.8901 22.458 89.3721 22.4208 86.7811 22.4208C86.2701 22.2722 86.2702 21.7892 86.3431 21.5663C86.3796 21.3433 86.6716 21.0833 87.1095 21.0461H90.5034C91.9266 21.0461 93.3499 21.0833 94.7731 21.0461C96.4883 20.9718 97.875 21.6777 99.0793 22.8667C101.488 25.3189 103.896 27.7711 106.305 30.2234C113.275 37.3199 120.209 44.3793 127.179 51.4387C128.456 52.7391 129.113 54.2253 129.077 56.1202C129.113 69.6817 129.113 83.2432 129.15 96.8047Z" fill="#919191"/>
<path fill-rule="evenodd" clip-rule="evenodd" d="M89.1896 12.389C89.2626 12.1661 89.3356 12.0175 89.7735 12.0175C93.0579 12.0175 96.3788 11.9803 99.6632 12.0546C100.94 12.0918 101.962 12.872 102.838 13.7637C105.174 16.1416 107.509 18.5196 109.845 20.8603C118.603 29.7775 127.362 38.7318 136.156 47.6489C137.507 49.0236 138.127 50.547 138.127 52.5162C138.091 68.4927 138.091 84.4693 138.127 100.483C138.127 102.378 137.507 103.901 136.193 105.202C125.135 116.422 114.115 127.68 103.094 138.938C101.707 140.35 100.174 141.056 98.2035 140.982C95.7584 140.907 93.3498 140.945 90.9048 140.982C90.7223 140.982 90.5034 140.982 90.3939 140.907C90.2479 140.833 90.029 140.424 90.3209 140.313C90.5399 140.313 90.7223 140.313 90.9778 140.313C93.4228 140.313 95.8314 140.276 98.2764 140.313C99.9551 140.35 101.342 139.718 102.51 138.53C110.356 130.541 118.202 122.553 126.048 114.528C129.259 111.258 132.434 107.988 135.646 104.756C136.923 103.493 137.507 102.006 137.507 100.186C137.507 84.3578 137.507 68.5299 137.507 52.702C137.507 50.8814 136.923 49.3952 135.646 48.0948C124.625 36.9483 113.64 25.7276 102.656 14.544C101.305 13.1693 99.8092 12.5376 97.948 12.5748C95.284 12.6119 92.6565 12.5748 89.9925 12.5748C89.737 12.5748 89.518 12.5748 89.2626 12.5748C89.1896 12.5748 89.1896 12.4633 89.1896 12.389Z" fill="#B9B9B9"/>
<path fill-rule="evenodd" clip-rule="evenodd" d="M93.0579 151.608C93.3133 151.608 93.5688 151.608 93.8243 151.608C97.1816 151.608 100.503 151.571 103.86 151.534C104.918 151.534 105.867 151.088 106.633 150.382C107.765 149.304 108.859 148.227 109.918 147.112C120.866 135.966 131.85 124.819 142.798 113.636C144.221 112.187 145.608 110.701 147.068 109.289C148.455 107.951 149.039 106.354 149.039 104.421C149.002 93.0521 149.039 81.7199 149.039 70.3506C149.039 62.8453 149.002 55.3772 149.075 47.8719C149.075 45.6798 148.418 43.9706 146.886 42.4101C133.748 29.0716 120.61 15.733 107.509 2.35727C106.159 0.982539 104.626 0.313755 102.729 0.35091C99.5172 0.388065 96.3058 0.35091 93.0944 0.35091C92.8389 0.35091 92.5835 0.35091 92.3645 0.35091C92.328 0.35091 92.255 0.276597 92.255 0.202287C92.255 0.127978 92.2915 0.0536703 92.3645 0.0536703C92.547 0.0165155 92.6565 0.0165132 92.766 0.0165132C96.3423 0.0165132 99.9551 -0.0206416 103.531 0.0165132C105.137 0.0165132 106.414 0.796766 107.546 1.91141C113.494 7.96764 119.443 14.0239 125.391 20.0801C132.726 27.5111 140.025 34.9792 147.36 42.4101C148.747 43.7849 149.367 45.3825 149.367 47.3889C149.331 66.5608 149.331 85.7326 149.367 104.867C149.367 106.614 148.747 108.026 147.542 109.252C139.623 117.314 131.704 125.377 123.785 133.439C118.384 138.938 112.983 144.4 107.619 149.936C106.305 151.274 104.772 151.942 102.911 151.905C99.8821 151.868 96.8532 151.905 93.8243 151.905C93.5688 151.905 93.3498 151.905 93.0944 151.905C93.0214 151.868 92.9849 151.794 92.9849 151.757C92.9484 151.72 92.9484 151.682 93.0579 151.608Z" fill="#E6E6E6"/>
<path d="M114.881 74.9945C114.881 75.1059 114.844 75.1802 114.844 75.2916C115.392 74.9202 115.976 74.5488 116.56 74.1774C116.56 74.1031 116.56 73.9916 116.56 73.9174C115.976 74.2145 115.428 74.5859 114.881 74.9945Z" fill="#F28B0C"/>
<path d="M94.1527 58.9069C93.2404 59.7243 92.3645 60.5417 91.5252 61.4334C89.2626 63.7741 87.146 66.2635 84.8834 68.6414H97.6561C97.4736 64.9631 96.3058 61.7306 94.1527 58.9069Z" fill="#151EBF"/>
<path d="M106.524 83.3548H105.94C103.896 86.0671 103.75 87.5904 101.78 89.4482C100.32 90.86 98.7144 92.4205 97.1452 94.0182C98.167 93.721 99.1888 93.5723 100.174 93.5723C102.838 93.5723 104.882 94.6498 106.341 96.8048C107.29 98.1052 107.801 99.6286 107.801 101.301C107.801 101.784 107.765 102.267 107.692 102.712C110.027 100.335 112.363 97.9566 114.698 95.5787C115.976 94.2783 116.596 92.7921 116.596 90.9344C116.596 85.324 116.596 79.7136 116.596 74.1404C116.012 74.5491 115.428 74.9206 114.881 75.255C114.115 80.6425 111.341 83.3548 106.524 83.3548Z" fill="#D50BD9"/>
<path d="M114.881 74.9948C115.428 74.6233 116.012 74.2517 116.56 73.8802C116.56 69.5331 116.56 65.1488 116.56 60.8017C116.56 60.2815 116.487 59.7985 116.377 59.3527C115.574 60.5045 114.735 61.5819 113.859 62.6594C114.625 65.7061 115.027 68.8643 115.027 72.0968C115.063 73.0999 114.99 74.066 114.881 74.9948Z" fill="#F28B0C"/>
<path d="M105.21 83.3547H89.0801C86.7811 84.9524 84.5185 86.5129 82.2924 88.1105C81.5625 88.6307 80.8326 89.1509 80.1028 89.7082C77.5118 93.4608 74.5923 96.9534 71.3809 100.112C71.1619 100.372 70.9795 100.632 70.7605 100.892C72.4757 101.263 74.2274 101.449 76.0885 101.449C79.4824 101.449 82.5478 101.003 85.3213 100.112C86.4161 99.74 87.5474 99.2941 88.6422 98.774C90.2844 97.9566 91.8901 96.9534 93.4958 95.7273C94.7366 94.947 95.9409 94.3897 97.1452 94.0553C98.7509 92.4577 100.32 90.8972 101.78 89.4853C103.714 87.6275 103.86 86.067 105.94 83.3919H105.21V83.3547Z" fill="#F28B0C"/>
<path d="M114.881 56.5288C112.363 53.9651 109.881 51.4386 107.363 48.8749C108.312 50.1381 109.188 51.4757 109.954 52.8876C111.742 56.0086 113.02 59.2782 113.859 62.6221C114.735 61.5447 115.574 60.4672 116.377 59.3154C116.158 58.275 115.684 57.3462 114.881 56.5288Z" fill="#151EBF"/>
<path d="M85.7227 83.3547H63.8997C60.8707 85.1753 57.7323 87.1074 54.8129 88.8536C56.3821 91.8632 58.5717 94.4269 61.3087 96.5075C63.9727 98.551 66.9286 99.9629 70.0671 100.743C70.286 100.78 70.505 100.855 70.7239 100.892C70.9429 100.632 71.1619 100.372 71.3443 100.112C74.5557 96.9162 77.4752 93.4608 80.0662 89.7082C80.7961 89.188 81.5259 88.6679 82.2558 88.1105C84.4819 86.5129 86.7445 84.9152 89.0436 83.3547H85.7227Z" fill="#151EBF"/>
<path d="M93.2038 57.7921C92.5105 57.0118 91.7076 56.2687 90.8683 55.5628C90.0654 54.9312 89.2626 54.3367 88.4232 53.8165C82.0004 58.9067 72.6946 65.8547 67.2571 68.6413H78.8985H84.8469C87.1095 66.2634 89.2261 63.774 91.4887 61.4333C92.328 60.5415 93.2038 59.7241 94.1162 58.9067C93.8607 58.5352 93.5323 58.1636 93.2038 57.7921Z" fill="#29A632"/>
<path d="M54.8129 88.8536C57.7323 87.0702 60.8708 85.1753 63.8997 83.3547H52.6963C53.2437 85.3239 53.937 87.1817 54.8129 88.8536Z" fill="#29A632"/>
<path d="M76.9279 50.3985C76.5995 50.3985 76.2345 50.3613 75.9061 50.3613C70.2131 50.3613 65.25 52.0333 60.9438 55.3772C56.6376 58.7212 53.8276 63.1426 52.5139 68.6415H52.6234H67.2572C72.6582 65.8549 82.0005 58.9069 88.4233 53.8167C84.9929 51.6989 81.1611 50.5471 76.9279 50.3985Z" fill="#BF0B3B"/>
<path fill-rule="evenodd" clip-rule="evenodd" d="M20.1808 96.8047C20.1808 98.6253 20.8011 100.074 22.0419 101.338C31.3842 110.849 40.763 120.361 50.1053 129.91C51.346 131.173 52.8058 131.916 54.6304 131.842C56.82 131.767 59.0096 131.842 61.2357 131.842C61.6006 131.805 61.7831 131.433 61.8196 131.21C61.8561 130.987 61.7831 130.653 61.5277 130.541H60.7613C58.8271 130.541 56.893 130.504 54.9589 130.541C53.3532 130.578 52.0759 130.021 50.9811 128.869C47.8427 125.6 44.6678 122.404 41.4928 119.172C35.3985 112.967 29.3041 106.725 23.1732 100.557C22.0419 99.4056 21.531 98.1052 21.531 96.5075C21.531 83.1689 21.531 69.7932 21.531 56.4546C21.531 54.8198 22.0784 53.5194 23.1732 52.4048C32.4425 43.0046 41.7118 33.5673 50.9446 24.13C52.0394 23.0153 53.3167 22.4208 54.9224 22.4208C57.4404 22.458 59.9584 22.4208 62.5495 22.4208C63.0604 22.2722 63.0604 21.7892 62.9874 21.5663C62.9509 21.3433 62.6589 21.0833 62.221 21.0461H58.8272C57.4039 21.0461 55.9807 21.0833 54.5574 21.0461C52.8422 20.9718 51.4555 21.6777 50.2512 22.8667C47.8427 25.3189 45.4341 27.7711 43.0256 30.2234C36.0553 37.3199 29.1216 44.3793 22.1514 51.4387C20.8741 52.7391 20.2172 54.2253 20.2537 56.1202C20.2172 69.6817 20.2172 83.2432 20.1808 96.8047Z" fill="#919191"/>
<path fill-rule="evenodd" clip-rule="evenodd" d="M60.1409 12.389C60.0679 12.1661 59.995 12.0175 59.557 12.0175C56.2726 12.0175 52.9518 11.9803 49.6674 12.0546C48.3901 12.0918 47.3683 12.872 46.4924 13.7637C44.1569 16.1416 41.8213 18.5196 39.4857 20.8603C30.7273 29.7775 21.969 38.7318 13.1741 47.6489C11.8238 49.0236 11.2034 50.547 11.2034 52.5162C11.2399 68.4927 11.2399 84.4693 11.2034 100.483C11.2034 102.378 11.8238 103.901 13.1376 105.202C24.195 116.422 35.216 127.68 46.237 138.938C47.6237 140.35 49.1564 141.056 51.1271 140.982C53.5721 140.907 55.9807 140.945 58.4257 140.982C58.6082 140.982 58.8272 140.982 58.9366 140.907C59.0826 140.833 59.3016 140.424 59.0096 140.313C58.7907 140.313 58.6082 140.313 58.3528 140.313C55.9077 140.313 53.4991 140.276 51.0541 140.313C49.3754 140.35 47.9887 139.718 46.8209 138.53C38.9748 130.541 31.1288 122.553 23.2827 114.528C20.0713 111.258 16.8964 107.988 13.685 104.756C12.4077 103.493 11.8238 102.006 11.8238 100.186C11.8238 84.3578 11.8238 68.5299 11.8238 52.702C11.8238 50.8814 12.4077 49.3952 13.685 48.0948C24.7059 36.9483 35.6904 25.7276 46.6749 14.544C48.0252 13.1693 49.5214 12.5376 51.3825 12.5748C54.0465 12.6119 56.6741 12.5748 59.3381 12.5748C59.5935 12.5748 59.8125 12.5748 60.0679 12.5748C60.1409 12.5748 60.1774 12.4633 60.1409 12.389Z" fill="#B9B9B9"/>
<path fill-rule="evenodd" clip-rule="evenodd" d="M56.3092 151.645C56.0537 151.645 55.7983 151.645 55.5428 151.645C52.1854 151.645 48.8645 151.608 45.5071 151.571C44.4488 151.571 43.5 151.125 42.7337 150.419C41.6024 149.341 40.5076 148.264 39.4493 147.149C28.5013 136.003 17.5168 124.856 6.56879 113.673C5.14555 112.224 3.75881 110.737 2.29908 109.326C0.912333 107.988 0.32844 106.39 0.32844 104.458C0.364934 93.0889 0.32844 81.7567 0.32844 70.3873C0.32844 62.882 0.364934 55.4139 0.291947 47.9086C0.291947 45.7165 0.948827 44.0074 2.48155 42.4469C15.6191 29.1083 28.7567 15.7697 41.8578 2.39401C43.2081 1.01928 44.7408 0.350493 46.6384 0.387647C49.8498 0.424802 53.0613 0.387647 56.2727 0.387647C56.5281 0.387647 56.7836 0.387647 57.0025 0.387647C57.039 0.387647 57.112 0.31334 57.112 0.23903C57.112 0.164721 57.0755 0.0904135 57.0025 0.0904135C56.8201 0.0532587 56.7106 0.0532564 56.6011 0.0532564C53.0248 0.0532564 49.4119 0.0161016 45.8356 0.0532564C44.2299 0.0532564 42.9526 0.833509 41.8213 1.94815C35.8729 8.00438 29.9245 14.0606 23.9761 20.1168C16.6409 27.5478 9.34228 35.0159 2.00713 42.4469C0.620386 43.8216 0 45.4193 0 47.4256C0.0364933 66.5975 0.0364933 85.7694 0 104.904C0 106.65 0.620386 108.062 1.82466 109.288C9.74371 117.351 17.6628 125.414 25.5818 133.476C30.9828 138.975 36.3838 144.437 41.7483 149.973C43.0621 151.31 44.5948 151.979 46.456 151.942C49.4849 151.905 52.5139 151.942 55.5428 151.942C55.7983 151.942 56.0172 151.942 56.2727 151.942C56.3457 151.905 56.3821 151.831 56.3821 151.793C56.4186 151.719 56.3821 151.682 56.3092 151.645Z" fill="#E6E6E6"/>
<path d="M32.771 80.308C32.771 83.9863 32.771 87.7018 32.771 91.3801C32.771 92.8291 33.2089 94.0552 34.1577 95.0956C34.9606 95.9873 35.7999 96.8047 36.6393 97.6593C38.026 99.0712 39.3762 100.446 40.763 101.858C39.7777 100.483 38.8653 99.034 38.026 97.5478C35.1065 92.2347 33.3549 86.4757 32.771 80.308Z" fill="#29A632"/>
<path d="M40.3616 50.5471C38.3544 52.6278 36.3108 54.6713 34.3037 56.752C33.3184 57.7552 32.771 59.0184 32.771 60.4675C32.771 64.1086 32.771 67.7869 32.771 71.4281C33.3184 65.2604 35.07 59.5386 38.026 54.2626C38.7559 52.9622 39.5222 51.7361 40.3616 50.5471Z" fill="#151EBF"/>
<path d="M89.3355 118.689C91.1967 118.689 92.6929 118.057 93.9702 116.72C94.7731 115.865 95.6124 115.048 96.4153 114.193C91.6711 116.683 86.1241 118.169 79.8473 118.689C83.0222 118.652 86.1606 118.652 89.3355 118.689Z" fill="#BF0B3B"/>
<path d="M70.9064 33.3815C67.1476 33.3815 63.3888 33.3815 59.6665 33.3444C58.0243 33.3444 56.6741 33.9388 55.5428 35.0906C53.5357 37.1341 51.492 39.2148 49.4849 41.2583C50.6527 40.4038 51.8935 39.5864 53.1707 38.8433C58.4987 35.7594 64.4106 33.9388 70.9064 33.3815Z" fill="#D50BD9"/>
<path d="M99.9551 41.3698C97.9115 39.2891 95.9043 37.2456 93.8607 35.1649C92.6929 33.976 91.3062 33.3444 89.5545 33.3444C86.1241 33.3444 82.6938 33.3815 79.2634 33.3815C85.3578 33.9017 90.8683 35.648 95.8314 38.5832C97.2911 39.4377 98.6778 40.3666 99.9551 41.3698Z" fill="#BF0B3B"/>
<path d="M49.3754 110.663C51.346 112.67 53.2801 114.676 55.2508 116.645C56.5645 118.02 58.0973 118.689 59.9949 118.689C63.4253 118.689 66.8921 118.652 70.3225 118.652C64.0092 118.057 58.2432 116.237 53.0247 113.116C51.7839 112.373 50.5432 111.518 49.3754 110.663Z" fill="#F28B0C"/>
</svg>
